<?xml version="1.0" encoding="UTF-8"?>
<svg width="752pt" height="752pt" version="1.1" viewBox="0 0 752 752" xmlns="http://www.w3.org/2000/svg">
 <g>
  <path d="m161 573.32c11.781-131.54 11.781-263.11 0-394.65h35.344c-11.781 131.54-11.781 263.11 0 394.65"/>
  <path d="m178.67 358.32c98.664 11.781 197.32 11.781 313.66 0-11.781 83.457-11.781 149.21 0 215h-35.344c11.781-65.781 11.781-131.54 0-179.65-80.992-11.781-179.65-11.781-278.32 0"/>
  <path d="m391.8 170.78c22.34 71.027 55.242 136.81 82.855 165.71 27.633-28.902 60.512-94.684 82.855-165.71l31.613 15.805c-43.418 60.492-76.32 126.27-114.47 228.92-38.148-102.64-71.031-168.43-114.47-228.92"/>
 </g>
</svg>
